<?xml version="1.0" encoding="UTF-8"?><svg id="_图层_2" xmlns="http://www.w3.org/2000/svg" xmlns:xlink="http://www.w3.org/1999/xlink" viewBox="0 0 512 512"><defs><style>.cls-1{fill:none;}.cls-2{fill:url(#_未命名的渐变_9-2);}.cls-3{fill:url(#_未命名的渐变_9-3);}.cls-4{clip-path:url(#clippath);}.cls-5{fill:url(#_未命名的渐变_40);}.cls-6{fill:url(#_未命名的渐变_36);}.cls-7{fill:url(#_未命名的渐变_34);}.cls-8{fill:url(#_未命名的渐变_32);}.cls-9{fill:url(#_未命名的渐变_30);}.cls-10,.cls-11,.cls-12{fill-rule:evenodd;}.cls-10,.cls-13{fill:url(#_未命名的渐变_9);}.cls-11{fill:url(#_未命名的渐变_4);}.cls-13{clip-rule:evenodd;}.cls-12{fill:url(#_未命名的渐变_4-2);}</style><linearGradient id="_未命名的渐变_4" x1="56.35" y1="340.13" x2="112.59" y2="340.13" gradientUnits="userSpaceOnUse"><stop offset="0" stop-color="#fff"/><stop offset="1" stop-color="#ee2e31"/></linearGradient><linearGradient id="_未命名的渐变_4-2" x1="182.85" y1="261.89" x2="322.24" y2="20.45" xlink:href="#_未命名的渐变_4"/><linearGradient id="_未命名的渐变_9" x1="72.85" y1="294.84" x2="216.31" y2="294.84" gradientUnits="userSpaceOnUse"><stop offset="0" stop-color="#fff"/><stop offset=".02" stop-color="#f6fafc"/><stop offset=".13" stop-color="#bddaed"/><stop offset=".25" stop-color="#8abee0"/><stop offset=".37" stop-color="#60a6d5"/><stop offset=".49" stop-color="#3d93cc"/><stop offset=".62" stop-color="#2284c5"/><stop offset=".74" stop-color="#0f79bf"/><stop offset=".87" stop-color="#0373bc"/><stop offset="1" stop-color="#0071bc"/></linearGradient><clipPath id="clippath"><path class="cls-13" d="m107.38,95.68c-71.01,73.93-17.94,138.21,29.22,205.66h-28.77c-2.51,5.42-4.7,10.78-6.54,16.1h46.35c4.73,7.11,9.27,14.24,13.5,21.43h-65.4c-.89,5.4-1.38,10.76-1.42,16.11h75.66c3.55,7.08,6.71,14.22,9.32,21.43h-82.77c1.16,5.35,2.79,10.71,4.93,16.1h82.72c1.68,7.06,2.73,14.2,3.11,21.43l-74.78.02c3.58,5.61,7.52,10.79,11.5,16.1h62.93c-2.01,20.44-10.12,41.67-26.89,63.95C337.36,354.49,32.05,249.92,107.38,95.68"/></clipPath><linearGradient id="_未命名的渐变_9-2" x1="-2170.83" y1="-1280.69" x2="-2172.88" y2="-1294.09" gradientTransform="translate(70693.58 42089.78) scale(32.46)" xlink:href="#_未命名的渐变_9"/><linearGradient id="_未命名的渐变_9-3" x1="212.97" y1="397.31" x2="439.88" y2="397.31" xlink:href="#_未命名的渐变_9"/><linearGradient id="_未命名的渐变_36" x1="192.85" y1="306.08" x2="209.77" y2="306.08" gradientUnits="userSpaceOnUse"><stop offset="0" stop-color="#fff"/><stop offset=".05" stop-color="#f4e2ec"/><stop offset=".15" stop-color="#e0adcb"/><stop offset=".26" stop-color="#ce7fad"/><stop offset=".37" stop-color="#bf5895"/><stop offset=".48" stop-color="#b33880"/><stop offset=".6" stop-color="#a91f70"/><stop offset=".72" stop-color="#a30d65"/><stop offset=".85" stop-color="#9f035f"/><stop offset="1" stop-color="#9e005d"/></linearGradient><linearGradient id="_未命名的渐变_30" x1="47.81" y1="208.18" x2="71.98" y2="208.18" gradientUnits="userSpaceOnUse"><stop offset="0" stop-color="#fff"/><stop offset=".11" stop-color="#ffe5ca"/><stop offset=".22" stop-color="#ffd09d"/><stop offset=".34" stop-color="#ffbd76"/><stop offset=".45" stop-color="#ffad56"/><stop offset=".58" stop-color="#ffa23d"/><stop offset=".7" stop-color="#ff992b"/><stop offset=".84" stop-color="#ff9421"/><stop offset="1" stop-color="#ff931e"/></linearGradient><linearGradient id="_未命名的渐变_40" x1="93.74" y1="80.07" x2="108.24" y2="80.07" gradientUnits="userSpaceOnUse"><stop offset="0" stop-color="#fff"/><stop offset=".1" stop-color="#fefbcd"/><stop offset=".21" stop-color="#fdf7a0"/><stop offset=".33" stop-color="#fdf479"/><stop offset=".45" stop-color="#fcf259"/><stop offset=".57" stop-color="#fcf040"/><stop offset=".7" stop-color="#fcef2e"/><stop offset=".84" stop-color="#fcee24"/><stop offset="1" stop-color="#fcee21"/></linearGradient><linearGradient id="_未命名的渐变_34" x1="142.08" y1="251.69" x2="156.59" y2="251.69" gradientUnits="userSpaceOnUse"><stop offset="0" stop-color="#fff"/><stop offset=".02" stop-color="#fff9fb"/><stop offset=".16" stop-color="#ffd3e3"/><stop offset=".31" stop-color="#ffb3cf"/><stop offset=".46" stop-color="#ff9abf"/><stop offset=".63" stop-color="#ff88b4"/><stop offset=".8" stop-color="#ff7eae"/><stop offset="1" stop-color="#ff7bac"/></linearGradient><linearGradient id="_未命名的渐变_32" x1="154.17" y1="464.41" x2="173.51" y2="464.41" gradientUnits="userSpaceOnUse"><stop offset="0" stop-color="#fff"/><stop offset=".04" stop-color="#f4faef"/><stop offset=".16" stop-color="#d4edc2"/><stop offset=".28" stop-color="#b8e29b"/><stop offset=".41" stop-color="#a1d97b"/><stop offset=".54" stop-color="#90d262"/><stop offset=".68" stop-color="#83cc50"/><stop offset=".83" stop-color="#7cc946"/><stop offset="1" stop-color="#7ac943"/></linearGradient></defs><g id="_图层_1-2"><rect class="cls-1" width="512" height="512"/><path class="cls-11" d="m109.53,278.28c-26.72,46.67-38.98,95.95,3.06,151.77-82.15-64.64-60.66-121.78-21.47-179.84,5.72,9.37,11.96,18.72,18.41,28.07"/><path class="cls-12" d="m165.27,31.72c6.22,6.46,11.46,12.85,15.85,19.18,28.43-12.62,60.84-19.18,95.81-19.18,67.07,0,124.7,24.12,162.94,68.82l-49.41,46.47c-46.93-50.61-130.97-64.12-191.41-28.89h0c-4.96,39.82-34.16,78.12-61.75,117.47-5.87-9.16-11.28-18.39-15.95-27.7,5.26-7.26,10.48-14.57,15.5-21.93l-25.64-6.87c-1.36-5.79-2.35-11.62-2.98-17.46l37.93,10.15c4-6.34,7.75-12.73,11.2-19.19l-49.75-13.34c.27-5.43.86-10.85,1.75-16.19l55.22,14.8c2.94-6.65,5.48-13.39,7.51-20.19l-57.64-15.44c1.68-5.13,3.64-10.17,5.89-15.1l55.45,14.86c1.22-7.15,1.81-14.4,1.65-21.76l-46.4-12.44c3.17-4.8,6.66-9.43,10.44-13.86l34.26,9.19c-1.85-10.24-5.24-20.7-10.46-31.4"/><path class="cls-10" d="m107.38,95.68c-71.01,73.93-17.94,138.21,29.22,205.66h-28.77c-2.51,5.42-4.7,10.78-6.54,16.1h46.35c4.73,7.11,9.27,14.24,13.5,21.43h-65.4c-.89,5.4-1.38,10.76-1.42,16.11h75.66c3.55,7.08,6.71,14.22,9.32,21.43h-82.77c1.16,5.35,2.79,10.71,4.93,16.1h82.72c1.68,7.06,2.73,14.2,3.11,21.43l-74.78.02c3.58,5.61,7.52,10.79,11.5,16.1h62.93c-2.01,20.44-10.12,41.67-26.89,63.95C337.36,354.49,32.05,249.92,107.38,95.68"/><g class="cls-4"><rect class="cls-2" x="32.05" y="95.68" width="305.3" height="398.32"/></g><path class="cls-3" d="m276.35,455.24c67.65,0,125.29-24.11,163.53-68.82l-49.41-47.05c-30,32.94-67.06,48.82-110,48.82-16,0-31.17-2.11-45.27-6.1.37,21.15-5.98,42.79-22.23,65.12,19.91,5.24,41.14,8.03,63.38,8.03"/><circle class="cls-6" cx="201.31" cy="306.08" r="8.46"/><circle class="cls-9" cx="59.9" cy="208.18" r="12.09"/><circle class="cls-5" cx="100.99" cy="80.07" r="7.25"/><circle class="cls-7" cx="149.34" cy="251.69" r="7.25"/><circle class="cls-8" cx="163.84" cy="464.41" r="9.67"/></g></svg>